<svg xmlns="http://www.w3.org/2000/svg" viewBox="0 0 128 128" width="128" height="128"><defs><clipPath id="t"><rect width="128" height="128" rx="30" ry="30"/></clipPath></defs><g clip-path="url(#t)"><rect width="128" height="128" fill="#FFF2BD"/><rect width="22" height="128" fill="#285CCC"/><path transform="translate(51.935 87.976) scale(0.03998 -0.03998)" d="M609.0001220703125 -20.5999755859375Q518.8004150390625 -20.5999755859375 460.5505676269531 5.79998779296875Q402.30072021484375 32.199951171875 369.80078125 58.59991455078125Q337.30084228515625 84.9998779296875 325.0008544921875 84.9998779296875Q317.10076904296875 84.9998779296875 300.00054931640625 68.34988403320312Q282.90032958984375 51.69989013671875 262.8500671386719 29.69989013671875Q242.7998046875 7.69989013671875 224.99957275390625 -8.950103759765625Q207.1993408203125 -25.60009765625 197.19921875 -25.60009765625Q191.399169921875 -25.60009765625 184.299072265625 -20.250030517578125Q177.198974609375 -14.89996337890625 175.198974609375 -6.9998779296875L101.999267578125 440.402099609375Q101.29925537109375 447.30218505859375 101.84927368164062 450.8522033691406Q102.3992919921875 454.4022216796875 104.79931640625 455.4022216796875Q107.49932861328125 457.4022216796875 111.04934692382812 455.20220947265625Q114.599365234375 453.002197265625 116.9993896484375 448.6021728515625Q207.6002197265625 269.0010986328125 287.6504211425781 171.70068359375Q367.70062255859375 74.4002685546875 440.900390625 37.1002197265625Q514.1001586914062 -0.1998291015625 583.7996826171875 -0.1998291015625Q688.6992797851562 -0.1998291015625 751.3490295410156 56.39984130859375Q813.998779296875 112.99951171875 813.998779296875 225.19921875Q813.998779296875 295.7991943359375 785.7488708496094 353.5490417480469Q757.4989624023438 411.29888916015625 690.19921875 459.4486389160156Q622.8994750976562 507.598388671875 506.5999755859375 548.1981201171875Q346.7996826171875 604.4981079101562 250.89947509765625 672.8482360839844Q154.999267578125 741.1983642578125 112.19915771484375 824.798583984375Q69.3990478515625 908.3988037109375 69.3990478515625 1012.1990966796875Q69.3990478515625 1133.1993408203125 131.29925537109375 1225.0995483398438Q193.199462890625 1316.999755859375 302.09991455078125 1368.4998779296875Q411.0003662109375 1420 552.401123046875 1420Q632.9006958007812 1420 686.00048828125 1400.7501525878906Q739.1002807617188 1381.5003051757812 770.8002319335938 1362.2504577636719Q802.5001831054688 1343.0006103515625 818.000244140625 1343.0006103515625Q832.8004150390625 1343.0006103515625 862.0007934570312 1363.50048828125Q891.201171875 1384.0003662109375 919.4015502929688 1404.500244140625Q947.6019287109375 1425.0001220703125 959.8021240234375 1425.0001220703125Q964.6021728515625 1425.0001220703125 969.2522277832031 1421.7000732421875Q973.9022827148438 1418.4000244140625 975.602294921875 1410.5999755859375L1083.4024658203125 970.1986083984375Q1084.802490234375 963.5985107421875 1084.0524597167969 960.3984985351562Q1083.3024291992188 957.198486328125 1080.6024169921875 955.198486328125Q1078.202392578125 954.198486328125 1074.6523742675781 956.2485046386719Q1071.1023559570312 958.2985229492188 1068.40234375 961.99853515625Q970.1013793945312 1136.0993041992188 886.9510803222656 1230.9995727539062Q803.80078125 1325.8998413085938 727.0509338378906 1362.7498474121094Q650.3010864257812 1399.599853515625 572.00146484375 1399.599853515625Q473.6021728515625 1399.599853515625 410.1026611328125 1334.7001342773438Q346.6031494140625 1269.8004150390625 346.6031494140625 1157.0010986328125Q346.6031494140625 1084.1011352539062 373.4530334472656 1024.7012939453125Q400.30291748046875 965.3014526367188 463.9526062011719 916.4516906738281Q527.602294921875 867.6019287109375 638.001708984375 827.4022216796875Q805.2020263671875 768.002197265625 901.80224609375 700.6521301269531Q998.4024658203125 633.3020629882812 1039.2025756835938 553.8018798828125Q1080.002685546875 474.30169677734375 1080.002685546875 377.0013427734375Q1080.002685546875 266.0009765625 1024.1523742675781 175.85067749023438Q968.3020629882812 85.70037841796875 862.9014892578125 32.550201416015625Q757.5009155273438 -20.5999755859375 609.0001220703125 -20.5999755859375Z" fill="#1C336B"/></g></svg>