<svg xmlns="http://www.w3.org/2000/svg" viewBox="0 0 128 128" width="128" height="128"><defs><clipPath id="t"><rect width="128" height="128" rx="30" ry="30"/></clipPath></defs><g clip-path="url(#t)"><rect width="128" height="128" fill="#FFF2BD"/><rect width="22" height="128" fill="#285CCC"/><path transform="translate(51.431 87.895) scale(0.07893 -0.07893)" d="M283.598876953125 720.7999267578125Q342.5985107421875 720.7999267578125 374.5982666015625 708.3999633789062Q406.5980224609375 696 429.597900390625 682Q441.597900390625 675 449.097900390625 671.5Q456.597900390625 668 463.597900390625 668Q473.597900390625 668 478.097900390625 679.0Q482.597900390625 690 485.597900390625 712H508.597900390625Q507.597900390625 692.60009765625 506.097900390625 666.4002075195312Q504.597900390625 640.2003173828125 504.097900390625 597.2005004882812Q503.597900390625 554.20068359375 503.597900390625 484.0009765625H480.597900390625Q476.9979248046875 536.2008056640625 456.89801025390625 585.0006103515625Q436.798095703125 633.8004150390625 400.4981689453125 665.4002685546875Q364.1982421875 697.0001220703125 310.59814453125 697.0001220703125Q262.9979248046875 697.0001220703125 231.79779052734375 669.7999267578125Q200.59765625 642.5997314453125 200.59765625 594.799560546875Q200.59765625 554.599365234375 220.5977783203125 526.499267578125Q240.597900390625 498.399169921875 279.097900390625 471.19927978515625Q317.597900390625 443.9993896484375 373.3974609375 406.3997802734375Q421.1976318359375 374.999755859375 459.2977294921875 343.79974365234375Q497.3978271484375 312.5997314453125 519.9978637695312 273.999755859375Q542.597900390625 235.3997802734375 542.597900390625 180.7998046875Q542.597900390625 114.9998779296875 508.49810791015625 71.7999267578125Q474.3983154296875 28.5999755859375 417.9986572265625 7.29998779296875Q361.5989990234375 -14 294.599365234375 -14Q232.5997314453125 -14 195.89996337890625 -2.0Q159.2001953125 10 133.600341796875 23Q111.600341796875 37 99.600341796875 37Q89.600341796875 37 85.100341796875 26.0Q80.600341796875 15 77.600341796875 -7H54.600341796875Q56.600341796875 16.9998779296875 57.100341796875 49.0997314453125Q57.600341796875 81.1995849609375 58.100341796875 132.599365234375Q58.600341796875 183.9991455078125 58.600341796875 262.998779296875H81.600341796875Q85.600341796875 196.9990234375 104.100341796875 139.5992431640625Q122.600341796875 82.199462890625 161.100341796875 47.099609375Q199.600341796875 11.999755859375 263.600341796875 11.999755859375Q299.000244140625 11.999755859375 326.7003173828125 24.2998046875Q354.400390625 36.599853515625 371.00048828125 61.60003662109375Q387.6005859375 86.6002197265625 387.6005859375 124.0006103515625Q387.6005859375 165.6005859375 368.40057373046875 196.7005615234375Q349.2005615234375 227.800537109375 315.70050048828125 254.9005126953125Q282.200439453125 282.00048828125 237.600341796875 310.00048828125Q190.600341796875 340.8004150390625 149.600341796875 372.0003662109375Q108.600341796875 403.2003173828125 84.100341796875 443.00030517578125Q59.600341796875 482.80029296875 59.600341796875 538.2003173828125Q59.600341796875 601.400146484375 91.20013427734375 641.7000732421875Q122.7999267578125 682 174.1995849609375 701.3999633789062Q225.5992431640625 720.7999267578125 283.598876953125 720.7999267578125Z" fill="#1C336B"/></g></svg>