<svg xmlns="http://www.w3.org/2000/svg" viewBox="0 0 128 128" width="128" height="128"><defs><clipPath id="t"><rect width="128" height="128" rx="30" ry="30"/></clipPath></defs><g clip-path="url(#t)"><rect width="128" height="128" fill="#FFF2BD"/><rect width="22" height="128" fill="#285CCC"/><path transform="translate(51.980 87.894) scale(0.07900 -0.07900)" d="M274.401123046875 720.2000732421875Q330.4014892578125 720.2000732421875 360.4017333984375 708.1000366210938Q390.4019775390625 696 412.402099609375 682Q424.402099609375 675 431.902099609375 671.5Q439.402099609375 668 446.402099609375 668Q456.402099609375 668 460.902099609375 679.0Q465.402099609375 690 468.402099609375 712H491.402099609375Q490.402099609375 693.39990234375 488.902099609375 668.0997924804688Q487.402099609375 642.7996826171875 486.902099609375 601.2994995117188Q486.402099609375 559.79931640625 486.402099609375 491.9990234375H463.402099609375Q460.0020751953125 542.7991943359375 440.60198974609375 589.9993896484375Q421.201904296875 637.1995849609375 385.5018310546875 667.5997314453125Q349.8017578125 697.9998779296875 295.40185546875 697.9998779296875Q246.0020751953125 697.9998779296875 213.70220947265625 669.2000732421875Q181.40234375 640.4002685546875 181.40234375 591.200439453125Q181.40234375 549.400634765625 202.4022216796875 520.500732421875Q223.402099609375 491.600830078125 261.902099609375 465.30072021484375Q300.402099609375 439.0006103515625 352.6025390625 404.6002197265625Q401.8023681640625 373.000244140625 440.7022705078125 341.70025634765625Q479.6021728515625 310.4002685546875 502.50213623046875 272.000244140625Q525.402099609375 233.6002197265625 525.402099609375 179.2001953125Q525.402099609375 114.0001220703125 493.00189208984375 71.2000732421875Q460.6016845703125 28.4000244140625 407.0013427734375 7.20001220703125Q353.4010009765625 -14 289.400634765625 -14Q230.4002685546875 -14 195.60003662109375 -2.0Q160.7998046875 10 136.399658203125 23Q114.399658203125 37 102.399658203125 37Q92.399658203125 37 87.899658203125 26.0Q83.399658203125 15 80.399658203125 -7H57.399658203125Q59.399658203125 16.0001220703125 59.899658203125 46.9002685546875Q60.399658203125 77.8004150390625 60.899658203125 127.400634765625Q61.399658203125 177.0008544921875 61.399658203125 253.001220703125H84.399658203125Q88.399658203125 189.0009765625 106.899658203125 133.4007568359375Q125.399658203125 77.800537109375 163.899658203125 43.900390625Q202.399658203125 10.000244140625 266.399658203125 10.000244140625Q300.999755859375 10.000244140625 329.2996826171875 22.7001953125Q357.599609375 35.400146484375 374.99951171875 61.89996337890625Q392.3994140625 88.3997802734375 392.3994140625 128.9993896484375Q392.3994140625 170.3994140625 373.09942626953125 201.2994384765625Q353.7994384765625 232.199462890625 319.79949951171875 259.0994873046875Q285.799560546875 285.99951171875 240.399658203125 313.99951171875Q193.399658203125 344.1995849609375 152.399658203125 374.9996337890625Q111.399658203125 405.7996826171875 86.899658203125 445.49969482421875Q62.399658203125 485.19970703125 62.399658203125 540.7996826171875Q62.399658203125 602.599853515625 92.29986572265625 642.2999267578125Q122.2000732421875 682 170.8004150390625 701.1000366210938Q219.4007568359375 720.2000732421875 274.401123046875 720.2000732421875Z" fill="#1C336B"/></g></svg>